<svg width="64" height="64" viewBox="0 0 64 64" fill="none" xmlns="http://www.w3.org/2000/svg" role="img" aria-label="Aether Exchange market scales">
  <defs>
    <linearGradient id="exchange-aether" x1="9" y1="25" x2="29" y2="43" gradientUnits="userSpaceOnUse"><stop stop-color="#A8F1FF"/><stop offset="1" stop-color="#2493DA"/></linearGradient>
    <linearGradient id="exchange-gold" x1="39" y1="27" x2="56" y2="45" gradientUnits="userSpaceOnUse"><stop stop-color="#FFF2A3"/><stop offset="1" stop-color="#D29325"/></linearGradient>
    <filter id="exchange-shadow" x="-20%" y="-20%" width="140%" height="155%"><feDropShadow dx="0" dy="2" stdDeviation="1.5" flood-color="#020813" flood-opacity="0.62"/></filter>
  </defs>
  <g filter="url(#exchange-shadow)" stroke="#07101D" stroke-linecap="round" stroke-linejoin="round">
    <path d="M32 11V52M20 18H44M13 52H51" stroke="#E9EEF5" stroke-width="4"/>
    <path d="M32 12L18 19M32 12L47 19" stroke="#D8B767" stroke-width="3"/>
    <circle cx="32" cy="11" r="4" fill="#F3C956" stroke-width="2.5"/>
    <path d="M10 26H25L29 33L18 44L7 33L10 26Z" fill="url(#exchange-aether)" stroke="#E9FAFF" stroke-width="2.5"/>
    <path d="M10 26L18 33L25 26M7 33H29" stroke="#D8F7FF" stroke-width="1.5"/>
    <circle cx="47" cy="35" r="11" fill="url(#exchange-gold)" stroke="#FFF7D6" stroke-width="2.5"/>
    <path d="M47 29V41M43 31H49C52 31 52 35 49 35H46C43 35 42 39 45 40H51" stroke="#183049" stroke-width="2.2"/>
  </g>
</svg>
