<svg width="64" height="64" viewBox="0 0 64 64" fill="none" xmlns="http://www.w3.org/2000/svg" role="img" aria-label="Guild hall">
  <defs>
    <linearGradient id="guild-wall" x1="15" y1="18" x2="49" y2="56" gradientUnits="userSpaceOnUse"><stop stop-color="#A987F5"/><stop offset="1" stop-color="#51349B"/></linearGradient>
    <linearGradient id="guild-gold" x1="16" y1="8" x2="44" y2="27" gradientUnits="userSpaceOnUse"><stop stop-color="#FFF1A2"/><stop offset="1" stop-color="#D99B2D"/></linearGradient>
    <filter id="guild-shadow" x="-25%" y="-20%" width="150%" height="155%"><feDropShadow dx="0" dy="2" stdDeviation="1.5" flood-color="#020813" flood-opacity="0.62"/></filter>
  </defs>
  <g filter="url(#guild-shadow)" stroke="#07101D" stroke-linecap="round" stroke-linejoin="round">
    <path d="M32 7V22" stroke="#F7E6A0" stroke-width="3"/>
    <path d="M34 8H51L46 14L51 20H34V8Z" fill="url(#guild-gold)" stroke-width="2.5"/>
    <path d="M10 24V16H18V22H25V16H33V26H40V20H48V26H54V55H10V24Z" fill="url(#guild-wall)" stroke-width="3"/>
    <path d="M8 55H56" stroke="#D8B767" stroke-width="4"/>
    <path d="M25 55V43C25 34 39 34 39 43V55" fill="#14233F" stroke-width="3"/>
    <path d="M16 31H22V38H16V31ZM42 31H48V38H42V31Z" fill="#A8EDFF" stroke-width="2.5"/>
    <path d="M25 27L32 22L39 27L32 32L25 27Z" fill="url(#guild-gold)" stroke-width="2.5"/>
  </g>
</svg>
