<svg width="64" height="64" viewBox="0 0 64 64" fill="none" xmlns="http://www.w3.org/2000/svg">
  <defs>
    <linearGradient id="mountBody" x1="14" y1="12" x2="50" y2="50" gradientUnits="userSpaceOnUse">
      <stop stop-color="#B8EBC4"/>
      <stop offset="0.52" stop-color="#70C896"/>
      <stop offset="1" stop-color="#3E8F70"/>
    </linearGradient>
    <linearGradient id="mountWheel" x1="10" y1="35" x2="52" y2="54" gradientUnits="userSpaceOnUse">
      <stop stop-color="#173653"/>
      <stop offset="1" stop-color="#081522"/>
    </linearGradient>
    <filter id="mountShadow" x="-25%" y="-25%" width="150%" height="165%">
      <feDropShadow dx="0" dy="2" stdDeviation="1.6" flood-color="#000814" flood-opacity="0.6"/>
    </filter>
  </defs>

  <g filter="url(#mountShadow)" stroke="#07101D" stroke-linecap="round" stroke-linejoin="round">
    <circle cx="17" cy="45" r="12" fill="url(#mountWheel)" stroke-width="3"/>
    <circle cx="47" cy="45" r="12" fill="url(#mountWheel)" stroke-width="3"/>
    <circle cx="17" cy="45" r="5" fill="#DDF4E5" stroke-width="2.5"/>
    <circle cx="47" cy="45" r="5" fill="#DDF4E5" stroke-width="2.5"/>

    <path d="M16 42c4-8 10-13 19-13 8 0 14 4 18 12l-7 5c-3-5-6-7-11-7-6 0-9 2-12 7l-7-4Z" fill="url(#mountBody)" stroke-width="3"/>
    <path d="M31 34c-5-3-8-8-7-14l8-2c0 5 2 8 7 10l-8 6Z" fill="#4B9C78" stroke-width="3"/>

    <path d="M10 18c5-7 14-10 24-7 6 1 11 5 15 10-5 4-11 6-18 5l-7 5-3-7c-5-1-9-3-11-6Z" fill="url(#mountBody)" stroke-width="3"/>
    <path d="M14 17c7-3 15-3 23 0" fill="none" stroke="#E9FFF0" stroke-width="2.5" opacity="0.85"/>
    <path d="M27 13c2 1 3 3 3 5-2 2-5 2-7 0 0-2 2-4 4-5Z" fill="#F4FAF5" stroke-width="2"/>
    <circle cx="27" cy="17" r="1.8" fill="#07101D" stroke="none"/>
    <circle cx="43" cy="21" r="4" fill="#FF745F" stroke-width="2"/>

    <path d="M35 34c7-1 14-4 20-9l-3 11 7 3c-5 4-10 5-15 5" fill="#5CB486" stroke-width="3"/>
    <path d="M30 38c2 3 4 5 7 7" fill="none" stroke="#DDF4E5" stroke-width="3"/>
  </g>
</svg>
