<svg xmlns="http://www.w3.org/2000/svg" width="64" height="64" viewBox="0 0 64 64">
  <defs>
    <linearGradient id="g" x1="12" y1="8" x2="52" y2="56" gradientUnits="userSpaceOnUse">
      <stop stop-color="#88e4ff"/>
      <stop offset="1" stop-color="#6d83ff"/>
    </linearGradient>
  </defs>
  <path d="M14 10h36a6 6 0 0 1 6 6v32a6 6 0 0 1-6 6H14a6 6 0 0 1-6-6V16a6 6 0 0 1 6-6Z" fill="#071522" stroke="#80dfff" stroke-width="3"/>
  <path d="M19 43 30 32l7 7 10-13" fill="none" stroke="url(#g)" stroke-width="5" stroke-linecap="round" stroke-linejoin="round"/>
  <path d="m40 26 8-1-1 8" fill="none" stroke="#9cecff" stroke-width="4" stroke-linecap="round" stroke-linejoin="round"/>
  <circle cx="19" cy="43" r="3.5" fill="#f5cf68"/>
  <circle cx="30" cy="32" r="3.5" fill="#f5cf68"/>
  <circle cx="37" cy="39" r="3.5" fill="#f5cf68"/>
</svg>
